<svg width="560" height="680" viewBox="0 0 560 680" fill="none" xmlns="http://www.w3.org/2000/svg" role="img" aria-label="ClipStack app panel preview">
  <rect width="560" height="680" fill="transparent"/>

  <g>
    <rect x="84" y="68" width="392" height="540" rx="14" fill="#27272B" stroke="rgba(255,255,255,0.12)"/>
    <rect x="84" y="68" width="392" height="50" rx="14" fill="#2C2D31"/>
    <line x1="84" y1="118.5" x2="476" y2="118.5" stroke="rgba(255,255,255,0.08)"/>

    <text x="102" y="95" fill="rgba(255,255,255,0.92)" font-size="14" font-family="SF Pro Text, -apple-system, BlinkMacSystemFont, Helvetica, Arial, sans-serif" font-weight="600">ClipStack</text>
    <text x="102" y="110" fill="rgba(255,255,255,0.45)" font-size="11" font-family="SF Pro Text, -apple-system, BlinkMacSystemFont, Helvetica, Arial, sans-serif">12 items</text>

    <circle cx="456" cy="94" r="10" fill="transparent"/>
    <path d="M452 90L460 98M460 90L452 98" stroke="rgba(255,255,255,0.72)" stroke-linecap="round"/>

    <rect x="96" y="132" width="368" height="56" rx="8" fill="transparent"/>
    <text x="108" y="155" fill="rgba(255,255,255,0.9)" font-size="13" font-family="SF Pro Text, -apple-system, BlinkMacSystemFont, Helvetica, Arial, sans-serif">https://clipstack.click</text>
    <text x="108" y="173" fill="rgba(255,255,255,0.42)" font-size="11" font-family="SF Pro Text, -apple-system, BlinkMacSystemFont, Helvetica, Arial, sans-serif">URL · 2m · Copied</text>
    <line x1="96" y1="188.5" x2="464" y2="188.5" stroke="rgba(255,255,255,0.06)"/>

    <rect x="96" y="190" width="368" height="62" rx="8" fill="transparent"/>
    <text x="108" y="214" fill="rgba(255,255,255,0.9)" font-size="13" font-family="SF Pro Text, -apple-system, BlinkMacSystemFont, Helvetica, Arial, sans-serif">Ship minimal website for ClipStack</text>
    <text x="108" y="232" fill="rgba(255,255,255,0.42)" font-size="11" font-family="SF Pro Text, -apple-system, BlinkMacSystemFont, Helvetica, Arial, sans-serif">Text · 15m</text>
    <line x1="96" y1="252.5" x2="464" y2="252.5" stroke="rgba(255,255,255,0.06)"/>

    <rect x="96" y="254" width="368" height="62" rx="8" fill="transparent"/>
    <text x="108" y="278" fill="rgba(255,255,255,0.9)" font-size="13" font-family="SF Pro Text, -apple-system, BlinkMacSystemFont, Helvetica, Arial, sans-serif">npm run build:macos:dmg</text>
    <text x="108" y="296" fill="rgba(255,255,255,0.42)" font-size="11" font-family="SF Pro Text, -apple-system, BlinkMacSystemFont, Helvetica, Arial, sans-serif">Text · 31m</text>
    <line x1="96" y1="316.5" x2="464" y2="316.5" stroke="rgba(255,255,255,0.06)"/>

    <rect x="96" y="318" width="368" height="62" rx="8" fill="transparent"/>
    <text x="108" y="342" fill="rgba(255,255,255,0.9)" font-size="13" font-family="SF Pro Text, -apple-system, BlinkMacSystemFont, Helvetica, Arial, sans-serif">Release notes draft is ready</text>
    <text x="108" y="360" fill="rgba(255,255,255,0.42)" font-size="11" font-family="SF Pro Text, -apple-system, BlinkMacSystemFont, Helvetica, Arial, sans-serif">Text · 58m</text>
    <line x1="96" y1="380.5" x2="464" y2="380.5" stroke="rgba(255,255,255,0.06)"/>

    <rect x="96" y="382" width="368" height="62" rx="8" fill="transparent"/>
    <text x="108" y="406" fill="rgba(255,255,255,0.9)" font-size="13" font-family="SF Pro Text, -apple-system, BlinkMacSystemFont, Helvetica, Arial, sans-serif">Auto updater endpoint configured</text>
    <text x="108" y="424" fill="rgba(255,255,255,0.42)" font-size="11" font-family="SF Pro Text, -apple-system, BlinkMacSystemFont, Helvetica, Arial, sans-serif">Text · 1h</text>
  </g>
</svg>
